<?xml version="1.0" encoding="utf-8" standalone="no"?>
<!DOCTYPE svg PUBLIC "-//W3C//DTD SVG 1.1//EN"
  "http://www.w3.org/Graphics/SVG/1.1/DTD/svg11.dtd">
<svg xmlns:xlink="http://www.w3.org/1999/xlink" width="246.614173pt" height="283.464567pt" viewBox="0 0 246.614173 283.464567" xmlns="http://www.w3.org/2000/svg" version="1.1">
 <metadata>
  <rdf:RDF xmlns:dc="http://purl.org/dc/elements/1.1/" xmlns:cc="http://creativecommons.org/ns#" xmlns:rdf="http://www.w3.org/1999/02/22-rdf-syntax-ns#">
   <cc:Work>
    <dc:type rdf:resource="http://purl.org/dc/dcmitype/StillImage"/>
    <dc:date>2022-06-05T17:21:43.710901</dc:date>
    <dc:format>image/svg+xml</dc:format>
    <dc:creator>
     <cc:Agent>
      <dc:title>Matplotlib v3.5.1, https://matplotlib.org/</dc:title>
     </cc:Agent>
    </dc:creator>
   </cc:Work>
  </rdf:RDF>
 </metadata>
 <defs>
  <style type="text/css">*{stroke-linejoin: round; stroke-linecap: butt}</style>
 </defs>
 <g id="figure_1">
  <g id="patch_1">
   <path d="M 0 283.464567 
L 246.614173 283.464567 
L 246.614173 0 
L 0 0 
z
" style="fill: #ffffff"/>
  </g>
  <g id="axes_1">
   <g id="patch_2">
    <path d="M 44.93 79.203573 
L 133.222087 79.203573 
L 133.222087 11.841982 
L 44.93 11.841982 
z
" style="fill: #ffffff"/>
   </g>
   <g id="matplotlib.axis_1">
    <g id="xtick_1">
     <g id="line2d_1">
      <defs>
       <path id="m10e4115dcf" d="M 0 0 
L 0 3.5 
" style="stroke: #000000; stroke-width: 2"/>
      </defs>
      <g>
       <use xlink:href="#m10e4115dcf" x="73.865326" y="79.203573" style="stroke: #000000; stroke-width: 2"/>
      </g>
     </g>
    </g>
    <g id="xtick_2">
     <g id="line2d_2">
      <g>
       <use xlink:href="#m10e4115dcf" x="103.803972" y="79.203573" style="stroke: #000000; stroke-width: 2"/>
      </g>
     </g>
    </g>
   </g>
   <g id="matplotlib.axis_2">
    <g id="ytick_1">
     <g id="line2d_3">
      <defs>
       <path id="ma25c31a0a7" d="M 0 0 
L -3.5 0 
" style="stroke: #000000; stroke-width: 2"/>
      </defs>
      <g>
       <use xlink:href="#ma25c31a0a7" x="44.93" y="47.995563" style="stroke: #000000; stroke-width: 2"/>
      </g>
     </g>
     <g id="text_1">
      <text style="font: 10px 'sans-serif'; text-anchor: end" x="37.93" y="51.794782" transform="rotate(-0, 37.93, 51.794782)">0.5</text>
     </g>
    </g>
    <g id="ytick_2">
     <g id="line2d_4">
      <g>
       <use xlink:href="#ma25c31a0a7" x="44.93" y="14.903873" style="stroke: #000000; stroke-width: 2"/>
      </g>
     </g>
     <g id="text_2">
      <text style="font: 10px 'sans-serif'; text-anchor: end" x="37.93" y="18.703092" transform="rotate(-0, 37.93, 18.703092)">1.0</text>
     </g>
    </g>
    <g id="text_3">
     <text style="font: 7px 'sans-serif'; text-anchor: middle" x="16.571094" y="45.522778" transform="rotate(-90, 16.571094, 45.522778)">Cumulative dist.</text>
    </g>
   </g>
   <g id="line2d_5">
    <path d="M 48.943277 60.516744 
L 58.976468 45.587644 
L 69.00966 32.309689 
L 79.042852 23.916371 
L 89.076043 19.238128 
L 99.109235 16.967804 
L 109.142427 15.454254 
L 119.175618 15.179064 
L 129.20881 14.903873 
" clip-path="url(#p4057e95205)" style="fill: none; stroke: #4b8200; stroke-width: 1.5; stroke-linecap: square"/>
   </g>
   <g id="line2d_6">
    <path d="M 48.943277 76.141682 
L 58.976468 68.577868 
L 69.00966 54.904817 
L 79.042852 37.013486 
L 89.076043 26.976885 
L 99.109235 19.849444 
L 109.142427 16.940285 
L 119.175618 15.485705 
L 129.20881 14.903873 
" clip-path="url(#p4057e95205)" style="fill: none; stroke: #900b7b; stroke-opacity: 0.75; stroke-width: 1.5; stroke-linecap: square"/>
   </g>
   <g id="patch_3">
    <path d="M 44.93 79.203573 
L 44.93 11.841982 
" style="fill: none; stroke: #000000; stroke-width: 0.8; stroke-linejoin: miter; stroke-linecap: square"/>
   </g>
   <g id="patch_4">
    <path d="M 44.93 79.203573 
L 133.222087 79.203573 
" style="fill: none; stroke: #000000; stroke-width: 0.8; stroke-linejoin: miter; stroke-linecap: square"/>
   </g>
   <g id="legend_1">
    <g id="line2d_7">
     <path d="M 73.999899 58.723104 
L 80.999899 58.723104 
L 87.999899 58.723104 
" style="fill: none; stroke: #4b8200; stroke-width: 1.5; stroke-linecap: square"/>
    </g>
    <g id="text_4">
     <text style="font: 7px 'sans-serif'; text-anchor: start" x="93.599899" y="61.173104" transform="rotate(-0, 93.599899, 61.173104)">Tactile 1</text>
    </g>
    <g id="line2d_8">
     <path d="M 73.999899 68.997792 
L 80.999899 68.997792 
L 87.999899 68.997792 
" style="fill: none; stroke: #900b7b; stroke-opacity: 0.75; stroke-width: 1.5; stroke-linecap: square"/>
    </g>
    <g id="text_5">
     <text style="font: 7px 'sans-serif'; text-anchor: start" x="93.599899" y="71.447792" transform="rotate(-0, 93.599899, 71.447792)">Tactile 3b</text>
    </g>
   </g>
  </g>
  <g id="axes_2">
   <g id="patch_5">
    <path d="M 147.522087 79.203573 
L 235.814173 79.203573 
L 235.814173 11.841982 
L 147.522087 11.841982 
z
" style="fill: #ffffff"/>
   </g>
   <g id="matplotlib.axis_3">
    <g id="xtick_3">
     <g id="line2d_9">
      <g>
       <use xlink:href="#m10e4115dcf" x="176.457413" y="79.203573" style="stroke: #000000; stroke-width: 2"/>
      </g>
     </g>
    </g>
    <g id="xtick_4">
     <g id="line2d_10">
      <g>
       <use xlink:href="#m10e4115dcf" x="206.396058" y="79.203573" style="stroke: #000000; stroke-width: 2"/>
      </g>
     </g>
    </g>
   </g>
   <g id="matplotlib.axis_4">
    <g id="ytick_3">
     <g id="line2d_11">
      <g>
       <use xlink:href="#ma25c31a0a7" x="147.522087" y="47.995563" style="stroke: #000000; stroke-width: 2"/>
      </g>
     </g>
    </g>
    <g id="ytick_4">
     <g id="line2d_12">
      <g>
       <use xlink:href="#ma25c31a0a7" x="147.522087" y="14.903873" style="stroke: #000000; stroke-width: 2"/>
      </g>
     </g>
    </g>
   </g>
   <g id="line2d_13">
    <path d="M 151.535363 14.903873 
L 161.568555 14.903873 
L 171.601747 14.903873 
L 181.634938 14.903873 
L 191.66813 14.903873 
L 201.701322 14.903873 
L 211.734513 14.903873 
L 221.767705 14.903873 
L 231.800897 14.903873 
" clip-path="url(#pf31632b828)" style="fill: none; stroke: #9cd455; stroke-width: 1.5; stroke-linecap: square"/>
   </g>
   <g id="line2d_14">
    <path d="M 151.535363 14.903873 
L 161.568555 14.903873 
L 171.601747 14.903873 
L 181.634938 14.903873 
L 191.66813 14.903873 
L 201.701322 14.903873 
L 211.734513 14.903873 
L 221.767705 14.903873 
L 231.800897 14.903873 
" clip-path="url(#pf31632b828)" style="fill: none; stroke: #d674c9; stroke-opacity: 0.75; stroke-width: 1.5; stroke-linecap: square"/>
   </g>
   <g id="patch_6">
    <path d="M 147.522087 79.203573 
L 147.522087 11.841982 
" style="fill: none; stroke: #000000; stroke-width: 0.8; stroke-linejoin: miter; stroke-linecap: square"/>
   </g>
   <g id="patch_7">
    <path d="M 147.522087 79.203573 
L 235.814173 79.203573 
" style="fill: none; stroke: #000000; stroke-width: 0.8; stroke-linejoin: miter; stroke-linecap: square"/>
   </g>
   <g id="legend_2">
    <g id="line2d_15">
     <path d="M 169.373236 21.010889 
L 176.373236 21.010889 
L 183.373236 21.010889 
" style="fill: none; stroke: #9cd455; stroke-width: 1.5; stroke-linecap: square"/>
    </g>
    <g id="text_6">
     <text style="font: 7px 'sans-serif'; text-anchor: start" x="188.973236" y="23.460889" transform="rotate(-0, 188.973236, 23.460889)">Acoustic 1</text>
    </g>
    <g id="line2d_16">
     <path d="M 169.373236 31.285576 
L 176.373236 31.285576 
L 183.373236 31.285576 
" style="fill: none; stroke: #d674c9; stroke-opacity: 0.75; stroke-width: 1.5; stroke-linecap: square"/>
    </g>
    <g id="text_7">
     <text style="font: 7px 'sans-serif'; text-anchor: start" x="188.973236" y="33.735576" transform="rotate(-0, 188.973236, 33.735576)">Acoustic 3b</text>
    </g>
   </g>
  </g>
  <g id="axes_3">
   <g id="patch_8">
    <path d="M 44.93 161.907146 
L 133.222087 161.907146 
L 133.222087 94.545555 
L 44.93 94.545555 
z
" style="fill: #ffffff"/>
   </g>
   <g id="matplotlib.axis_5">
    <g id="xtick_5">
     <g id="line2d_17">
      <g>
       <use xlink:href="#m10e4115dcf" x="73.865326" y="161.907146" style="stroke: #000000; stroke-width: 2"/>
      </g>
     </g>
    </g>
    <g id="xtick_6">
     <g id="line2d_18">
      <g>
       <use xlink:href="#m10e4115dcf" x="103.803972" y="161.907146" style="stroke: #000000; stroke-width: 2"/>
      </g>
     </g>
    </g>
   </g>
   <g id="matplotlib.axis_6">
    <g id="ytick_5">
     <g id="line2d_19">
      <g>
       <use xlink:href="#ma25c31a0a7" x="44.93" y="130.699136" style="stroke: #000000; stroke-width: 2"/>
      </g>
     </g>
     <g id="text_8">
      <text style="font: 10px 'sans-serif'; text-anchor: end" x="37.93" y="134.498355" transform="rotate(-0, 37.93, 134.498355)">0.5</text>
     </g>
    </g>
    <g id="ytick_6">
     <g id="line2d_20">
      <g>
       <use xlink:href="#ma25c31a0a7" x="44.93" y="97.607446" style="stroke: #000000; stroke-width: 2"/>
      </g>
     </g>
     <g id="text_9">
      <text style="font: 10px 'sans-serif'; text-anchor: end" x="37.93" y="101.406665" transform="rotate(-0, 37.93, 101.406665)">1.0</text>
     </g>
    </g>
   </g>
   <g id="line2d_21">
    <path d="M 48.943277 114.055387 
L 58.976468 102.810366 
L 69.00966 99.062026 
L 79.042852 98.110954 
L 89.076043 97.775282 
L 99.109235 97.607446 
L 109.142427 97.607446 
L 119.175618 97.607446 
L 129.20881 97.607446 
" clip-path="url(#p5ba26ded31)" style="fill: none; stroke: #4b8200; stroke-width: 1.5; stroke-linecap: square"/>
   </g>
   <g id="line2d_22">
    <path d="M 48.943277 121.026181 
L 58.976468 108.80771 
L 69.00966 100.662063 
L 79.042852 97.607446 
L 89.076043 97.607446 
L 99.109235 97.607446 
L 109.142427 97.607446 
L 119.175618 97.607446 
L 129.20881 97.607446 
" clip-path="url(#p5ba26ded31)" style="fill: none; stroke: #900b7b; stroke-opacity: 0.75; stroke-width: 1.5; stroke-linecap: square"/>
   </g>
   <g id="patch_9">
    <path d="M 44.93 161.907146 
L 44.93 94.545555 
" style="fill: none; stroke: #000000; stroke-width: 0.8; stroke-linejoin: miter; stroke-linecap: square"/>
   </g>
   <g id="patch_10">
    <path d="M 44.93 161.907146 
L 133.222087 161.907146 
" style="fill: none; stroke: #000000; stroke-width: 0.8; stroke-linejoin: miter; stroke-linecap: square"/>
   </g>
  </g>
  <g id="axes_4">
   <g id="patch_11">
    <path d="M 147.522087 161.907146 
L 235.814173 161.907146 
L 235.814173 94.545555 
L 147.522087 94.545555 
z
" style="fill: #ffffff"/>
   </g>
   <g id="matplotlib.axis_7">
    <g id="xtick_7">
     <g id="line2d_23">
      <g>
       <use xlink:href="#m10e4115dcf" x="176.457413" y="161.907146" style="stroke: #000000; stroke-width: 2"/>
      </g>
     </g>
    </g>
    <g id="xtick_8">
     <g id="line2d_24">
      <g>
       <use xlink:href="#m10e4115dcf" x="206.396058" y="161.907146" style="stroke: #000000; stroke-width: 2"/>
      </g>
     </g>
    </g>
   </g>
   <g id="matplotlib.axis_8">
    <g id="ytick_7">
     <g id="line2d_25">
      <g>
       <use xlink:href="#ma25c31a0a7" x="147.522087" y="130.699136" style="stroke: #000000; stroke-width: 2"/>
      </g>
     </g>
    </g>
    <g id="ytick_8">
     <g id="line2d_26">
      <g>
       <use xlink:href="#ma25c31a0a7" x="147.522087" y="97.607446" style="stroke: #000000; stroke-width: 2"/>
      </g>
     </g>
    </g>
   </g>
   <g id="line2d_27">
    <path d="M 151.535363 97.607446 
L 161.568555 97.607446 
L 171.601747 97.607446 
L 181.634938 97.607446 
L 191.66813 97.607446 
L 201.701322 97.607446 
L 211.734513 97.607446 
L 221.767705 97.607446 
L 231.800897 97.607446 
" clip-path="url(#pc21138d587)" style="fill: none; stroke: #9cd455; stroke-width: 1.5; stroke-linecap: square"/>
   </g>
   <g id="line2d_28">
    <path d="M 151.535363 97.607446 
L 161.568555 97.607446 
L 171.601747 97.607446 
L 181.634938 97.607446 
L 191.66813 97.607446 
L 201.701322 97.607446 
L 211.734513 97.607446 
L 221.767705 97.607446 
L 231.800897 97.607446 
" clip-path="url(#pc21138d587)" style="fill: none; stroke: #d674c9; stroke-opacity: 0.75; stroke-width: 1.5; stroke-linecap: square"/>
   </g>
   <g id="patch_12">
    <path d="M 147.522087 161.907146 
L 147.522087 94.545555 
" style="fill: none; stroke: #000000; stroke-width: 0.8; stroke-linejoin: miter; stroke-linecap: square"/>
   </g>
   <g id="patch_13">
    <path d="M 147.522087 161.907146 
L 235.814173 161.907146 
" style="fill: none; stroke: #000000; stroke-width: 0.8; stroke-linejoin: miter; stroke-linecap: square"/>
   </g>
  </g>
  <g id="axes_5">
   <g id="patch_14">
    <path d="M 44.93 244.610719 
L 133.222087 244.610719 
L 133.222087 177.249128 
L 44.93 177.249128 
z
" style="fill: #ffffff"/>
   </g>
   <g id="matplotlib.axis_9">
    <g id="xtick_9">
     <g id="line2d_29">
      <g>
       <use xlink:href="#m10e4115dcf" x="73.865326" y="244.610719" style="stroke: #000000; stroke-width: 2"/>
      </g>
     </g>
     <g id="text_10">
      <text style="font: 10px 'sans-serif'; text-anchor: middle" x="73.865326" y="259.209156" transform="rotate(-0, 73.865326, 259.209156)">0.25</text>
     </g>
    </g>
    <g id="xtick_10">
     <g id="line2d_30">
      <g>
       <use xlink:href="#m10e4115dcf" x="103.803972" y="244.610719" style="stroke: #000000; stroke-width: 2"/>
      </g>
     </g>
     <g id="text_11">
      <text style="font: 10px 'sans-serif'; text-anchor: middle" x="103.803972" y="259.209156" transform="rotate(-0, 103.803972, 259.209156)">0.50</text>
     </g>
    </g>
    <g id="text_12">
     <!-- $I_{Per}$ [bits] -->
     <g transform="translate(72.059191 270.51923)scale(0.07 -0.07)">
      <defs>
       <path id="CMMI12-49" d="M 2355 3879 
C 2413 4102 2426 4166 2893 4166 
C 3034 4166 3085 4166 3085 4287 
C 3085 4352 3014 4352 2995 4352 
C 2880 4352 2739 4339 2624 4339 
L 1837 4339 
C 1709 4339 1562 4352 1434 4352 
C 1382 4352 1312 4352 1312 4230 
C 1312 4166 1363 4166 1491 4166 
C 1888 4166 1888 4115 1888 4045 
C 1888 4000 1875 3962 1862 3905 
L 998 472 
C 941 249 928 185 461 185 
C 320 185 262 185 262 64 
C 262 0 326 0 358 0 
C 474 0 614 12 730 12 
L 1517 12 
C 1645 12 1786 0 1914 0 
C 1965 0 2042 0 2042 115 
C 2042 185 2003 185 1862 185 
C 1466 185 1466 236 1466 312 
C 1466 325 1466 357 1491 459 
L 2355 3879 
z
" transform="scale(0.015625)"/>
       <path id="CMMI12-50" d="M 1894 2022 
L 2970 2022 
C 3853 2022 4736 2673 4736 3400 
C 4736 3898 4314 4352 3507 4352 
L 1530 4352 
C 1408 4352 1350 4352 1350 4230 
C 1350 4166 1408 4166 1504 4166 
C 1894 4166 1894 4115 1894 4045 
C 1894 4032 1894 3994 1869 3898 
L 1005 471 
C 947 249 934 185 486 185 
C 365 185 301 185 301 70 
C 301 0 358 0 397 0 
C 518 0 646 12 768 12 
L 1517 12 
C 1638 12 1773 0 1894 0 
C 1946 0 2016 0 2016 121 
C 2016 185 1958 185 1862 185 
C 1478 185 1472 230 1472 293 
C 1472 325 1478 369 1485 401 
L 1894 2022 
z
M 2355 3917 
C 2413 4153 2438 4166 2688 4166 
L 3322 4166 
C 3802 4166 4198 4013 4198 3534 
C 4198 3369 4115 2826 3821 2533 
C 3712 2418 3405 2176 2822 2176 
L 1920 2176 
L 2355 3917 
z
" transform="scale(0.015625)"/>
       <path id="CMMI12-65" d="M 1146 1472 
C 1318 1472 1754 1484 2061 1600 
C 2547 1786 2592 2160 2592 2275 
C 2592 2559 2349 2816 1926 2816 
C 1254 2816 288 2205 288 1066 
C 288 400 672 -64 1254 -64 
C 2125 -64 2675 609 2675 691 
C 2675 729 2637 761 2611 761 
C 2592 761 2586 755 2528 698 
C 2118 159 1510 64 1267 64 
C 902 64 710 349 710 818 
C 710 907 710 1066 806 1472 
L 1146 1472 
z
M 838 1600 
C 1114 2591 1722 2687 1926 2687 
C 2208 2687 2400 2520 2400 2275 
C 2400 1600 1376 1600 1107 1600 
L 838 1600 
z
" transform="scale(0.015625)"/>
       <path id="CMMI12-72" d="M 2490 2633 
C 2291 2598 2189 2457 2189 2316 
C 2189 2163 2310 2111 2400 2111 
C 2579 2111 2726 2265 2726 2457 
C 2726 2651 2528 2816 2208 2816 
C 1952 2816 1658 2700 1389 2335 
C 1344 2660 1088 2816 832 2816 
C 582 2816 454 2642 378 2508 
C 269 2278 173 1892 173 1860 
C 173 1834 198 1801 243 1801 
C 294 1801 301 1808 339 1957 
C 435 2342 557 2687 813 2687 
C 966 2687 1011 2604 1011 2419 
C 1011 2278 947 2028 902 1827 
L 723 1130 
C 698 1007 627 716 595 600 
C 550 432 480 128 480 96 
C 480 6 550 -64 646 -64 
C 717 -64 838 -20 877 109 
C 896 160 1133 1136 1171 1285 
C 1203 1427 1242 1562 1274 1705 
C 1299 1795 1325 1898 1344 1982 
C 1363 2040 1536 2355 1696 2495 
C 1773 2566 1939 2687 2202 2687 
C 2304 2687 2406 2674 2490 2633 
z
" transform="scale(0.015625)"/>
       <path id="CMSS17-5b" d="M 1613 -1600 
L 1613 -1210 
L 1062 -1210 
L 1062 4409 
L 1613 4409 
L 1613 4800 
L 595 4800 
L 595 -1600 
L 1613 -1600 
z
" transform="scale(0.015625)"/>
       <path id="CMSS17-62" d="M 954 4416 
L 480 4416 
L 480 -13 
L 966 -13 
L 966 275 
C 1210 38 1504 -64 1766 -64 
C 2381 -64 2880 559 2880 1382 
C 2880 2133 2496 2816 1926 2816 
C 1523 2816 1165 2649 954 2476 
L 954 4416 
z
M 966 2095 
C 1107 2276 1306 2425 1587 2425 
C 1965 2425 2394 2146 2394 1382 
C 2394 566 1882 326 1530 326 
C 1402 326 1267 358 1139 468 
C 966 624 966 721 966 812 
L 966 2095 
z
" transform="scale(0.015625)"/>
       <path id="CMSS17-69" d="M 979 4224 
L 442 4224 
L 442 3686 
L 979 3686 
L 979 4224 
z
M 947 2752 
L 474 2752 
L 474 0 
L 947 0 
L 947 2752 
z
" transform="scale(0.015625)"/>
       <path id="CMSS17-74" d="M 1069 2380 
L 1901 2380 
L 1901 2752 
L 1069 2752 
L 1069 3520 
L 614 3520 
L 614 2752 
L 109 2752 
L 109 2380 
L 602 2380 
L 602 751 
C 602 384 685 -64 1107 -64 
C 1427 -64 1722 25 2003 172 
L 1901 551 
C 1747 416 1562 339 1363 339 
C 1082 339 1069 699 1069 860 
L 1069 2380 
z
" transform="scale(0.015625)"/>
       <path id="CMSS17-73" d="M 2061 2623 
C 1683 2803 1389 2816 1197 2816 
C 742 2816 198 2655 198 2009 
C 198 1363 902 1222 1094 1183 
C 1389 1126 1715 1062 1715 742 
C 1715 339 1254 339 1171 339 
C 915 339 563 409 243 639 
L 166 211 
C 531 0 883 -64 1178 -64 
C 1965 -64 2163 416 2163 780 
C 2163 1094 1984 1305 1862 1401 
C 1651 1567 1574 1587 1050 1695 
C 960 1708 646 1779 646 2067 
C 646 2431 1050 2431 1139 2431 
C 1555 2431 1811 2303 1984 2207 
L 2061 2623 
z
" transform="scale(0.015625)"/>
       <path id="CMSS17-5d" d="M 1146 4800 
L 128 4800 
L 128 4409 
L 678 4409 
L 678 -1210 
L 128 -1210 
L 128 -1600 
L 1146 -1600 
L 1146 4800 
z
" transform="scale(0.015625)"/>
      </defs>
      <use xlink:href="#CMMI12-49" transform="scale(0.996264)"/>
      <use xlink:href="#CMMI12-50" transform="translate(43.024176 -14.943915)scale(0.697382)"/>
      <use xlink:href="#CMMI12-65" transform="translate(96.521999 -14.943915)scale(0.697382)"/>
      <use xlink:href="#CMMI12-72" transform="translate(128.170256 -14.943915)scale(0.697382)"/>
      <use xlink:href="#CMSS17-5b" transform="translate(192.566769 0)scale(0.996264)"/>
      <use xlink:href="#CMSS17-62" transform="translate(219.752208 0)scale(0.996264)"/>
      <use xlink:href="#CMSS17-69" transform="translate(267.957151 0)scale(0.996264)"/>
      <use xlink:href="#CMSS17-74" transform="translate(290.137874 0)scale(0.996264)"/>
      <use xlink:href="#CMSS17-73" transform="translate(323.969441 0)scale(0.996264)"/>
      <use xlink:href="#CMSS17-5d" transform="translate(359.882983 0)scale(0.996264)"/>
     </g>
    </g>
   </g>
   <g id="matplotlib.axis_10">
    <g id="ytick_9">
     <g id="line2d_31">
      <g>
       <use xlink:href="#ma25c31a0a7" x="44.93" y="213.402709" style="stroke: #000000; stroke-width: 2"/>
      </g>
     </g>
     <g id="text_13">
      <text style="font: 10px 'sans-serif'; text-anchor: end" x="37.93" y="217.201928" transform="rotate(-0, 37.93, 217.201928)">0.5</text>
     </g>
    </g>
    <g id="ytick_10">
     <g id="line2d_32">
      <g>
       <use xlink:href="#ma25c31a0a7" x="44.93" y="180.311019" style="stroke: #000000; stroke-width: 2"/>
      </g>
     </g>
     <g id="text_14">
      <text style="font: 10px 'sans-serif'; text-anchor: end" x="37.93" y="184.110238" transform="rotate(-0, 37.93, 184.110238)">1.0</text>
     </g>
    </g>
   </g>
   <g id="line2d_33">
    <path d="M 48.943277 183.736758 
L 58.976468 180.501338 
L 69.00966 180.311019 
L 79.042852 180.311019 
L 89.076043 180.311019 
L 99.109235 180.311019 
L 109.142427 180.311019 
L 119.175618 180.311019 
L 129.20881 180.311019 
" clip-path="url(#pb6f3bb81a4)" style="fill: none; stroke: #4b8200; stroke-width: 1.5; stroke-linecap: square"/>
   </g>
   <g id="line2d_34">
    <path d="M 48.943277 185.402048 
L 58.976468 181.838328 
L 69.00966 180.820122 
L 79.042852 180.311019 
L 89.076043 180.311019 
L 99.109235 180.311019 
L 109.142427 180.311019 
L 119.175618 180.311019 
L 129.20881 180.311019 
" clip-path="url(#pb6f3bb81a4)" style="fill: none; stroke: #900b7b; stroke-opacity: 0.75; stroke-width: 1.5; stroke-linecap: square"/>
   </g>
   <g id="patch_15">
    <path d="M 44.93 244.610719 
L 44.93 177.249128 
" style="fill: none; stroke: #000000; stroke-width: 0.8; stroke-linejoin: miter; stroke-linecap: square"/>
   </g>
   <g id="patch_16">
    <path d="M 44.93 244.610719 
L 133.222087 244.610719 
" style="fill: none; stroke: #000000; stroke-width: 0.8; stroke-linejoin: miter; stroke-linecap: square"/>
   </g>
  </g>
  <g id="axes_6">
   <g id="patch_17">
    <path d="M 147.522087 244.610719 
L 235.814173 244.610719 
L 235.814173 177.249128 
L 147.522087 177.249128 
z
" style="fill: #ffffff"/>
   </g>
   <g id="matplotlib.axis_11">
    <g id="xtick_11">
     <g id="line2d_35">
      <g>
       <use xlink:href="#m10e4115dcf" x="176.457413" y="244.610719" style="stroke: #000000; stroke-width: 2"/>
      </g>
     </g>
     <g id="text_15">
      <text style="font: 10px 'sans-serif'; text-anchor: middle" x="176.457413" y="259.209156" transform="rotate(-0, 176.457413, 259.209156)">0.25</text>
     </g>
    </g>
    <g id="xtick_12">
     <g id="line2d_36">
      <g>
       <use xlink:href="#m10e4115dcf" x="206.396058" y="244.610719" style="stroke: #000000; stroke-width: 2"/>
      </g>
     </g>
     <g id="text_16">
      <text style="font: 10px 'sans-serif'; text-anchor: middle" x="206.396058" y="259.209156" transform="rotate(-0, 206.396058, 259.209156)">0.50</text>
     </g>
    </g>
    <g id="text_17">
     <!-- $I_{Per}$ [bits] -->
     <g transform="translate(174.651278 270.51923)scale(0.07 -0.07)">
      <use xlink:href="#CMMI12-49" transform="scale(0.996264)"/>
      <use xlink:href="#CMMI12-50" transform="translate(43.024176 -14.943915)scale(0.697382)"/>
      <use xlink:href="#CMMI12-65" transform="translate(96.521999 -14.943915)scale(0.697382)"/>
      <use xlink:href="#CMMI12-72" transform="translate(128.170256 -14.943915)scale(0.697382)"/>
      <use xlink:href="#CMSS17-5b" transform="translate(192.566769 0)scale(0.996264)"/>
      <use xlink:href="#CMSS17-62" transform="translate(219.752208 0)scale(0.996264)"/>
      <use xlink:href="#CMSS17-69" transform="translate(267.957151 0)scale(0.996264)"/>
      <use xlink:href="#CMSS17-74" transform="translate(290.137874 0)scale(0.996264)"/>
      <use xlink:href="#CMSS17-73" transform="translate(323.969441 0)scale(0.996264)"/>
      <use xlink:href="#CMSS17-5d" transform="translate(359.882983 0)scale(0.996264)"/>
     </g>
    </g>
   </g>
   <g id="matplotlib.axis_12">
    <g id="ytick_11">
     <g id="line2d_37">
      <g>
       <use xlink:href="#ma25c31a0a7" x="147.522087" y="213.402709" style="stroke: #000000; stroke-width: 2"/>
      </g>
     </g>
    </g>
    <g id="ytick_12">
     <g id="line2d_38">
      <g>
       <use xlink:href="#ma25c31a0a7" x="147.522087" y="180.311019" style="stroke: #000000; stroke-width: 2"/>
      </g>
     </g>
    </g>
   </g>
   <g id="line2d_39">
    <path d="M 151.535363 180.311019 
L 161.568555 180.311019 
L 171.601747 180.311019 
L 181.634938 180.311019 
L 191.66813 180.311019 
L 201.701322 180.311019 
L 211.734513 180.311019 
L 221.767705 180.311019 
L 231.800897 180.311019 
" clip-path="url(#pe34fc1d2b2)" style="fill: none; stroke: #9cd455; stroke-width: 1.5; stroke-linecap: square"/>
   </g>
   <g id="line2d_40">
    <path d="M 151.535363 180.311019 
L 161.568555 180.311019 
L 171.601747 180.311019 
L 181.634938 180.311019 
L 191.66813 180.311019 
L 201.701322 180.311019 
L 211.734513 180.311019 
L 221.767705 180.311019 
L 231.800897 180.311019 
" clip-path="url(#pe34fc1d2b2)" style="fill: none; stroke: #d674c9; stroke-opacity: 0.75; stroke-width: 1.5; stroke-linecap: square"/>
   </g>
   <g id="patch_18">
    <path d="M 147.522087 244.610719 
L 147.522087 177.249128 
" style="fill: none; stroke: #000000; stroke-width: 0.8; stroke-linejoin: miter; stroke-linecap: square"/>
   </g>
   <g id="patch_19">
    <path d="M 147.522087 244.610719 
L 235.814173 244.610719 
" style="fill: none; stroke: #000000; stroke-width: 0.8; stroke-linejoin: miter; stroke-linecap: square"/>
   </g>
  </g>
 </g>
 <defs>
  <clipPath id="p4057e95205">
   <rect x="44.93" y="11.841982" width="88.292087" height="67.361591"/>
  </clipPath>
  <clipPath id="pf31632b828">
   <rect x="147.522087" y="11.841982" width="88.292087" height="67.361591"/>
  </clipPath>
  <clipPath id="p5ba26ded31">
   <rect x="44.93" y="94.545555" width="88.292087" height="67.361591"/>
  </clipPath>
  <clipPath id="pc21138d587">
   <rect x="147.522087" y="94.545555" width="88.292087" height="67.361591"/>
  </clipPath>
  <clipPath id="pb6f3bb81a4">
   <rect x="44.93" y="177.249128" width="88.292087" height="67.361591"/>
  </clipPath>
  <clipPath id="pe34fc1d2b2">
   <rect x="147.522087" y="177.249128" width="88.292087" height="67.361591"/>
  </clipPath>
 </defs>
</svg>
